<svg xmlns="http://www.w3.org/2000/svg" version="1.1" xmlns:xlink="http://www.w3.org/1999/xlink" xmlns:svgjs="http://svgjs.dev/svgjs" width="1500" height="412" viewBox="0 0 1500 412"><g transform="matrix(1,0,0,1,-0.9090909090909918,-1.5900337811041538)"><svg viewBox="0 0 396 109" data-background-color="#575c5f" preserveAspectRatio="xMidYMid meet" height="412" width="1500" xmlns="http://www.w3.org/2000/svg" xmlns:xlink="http://www.w3.org/1999/xlink"><g id="tight-bounds" transform="matrix(1,0,0,1,0.2400000000000091,0.4206642770396911)"><svg viewBox="0 0 395.52 108.15867144592059" height="108.15867144592059" width="395.52"><g><svg viewBox="0 0 552.4177010000502 151.063826414278" height="108.15867144592059" width="395.52"><g transform="matrix(1,0,0,1,0,20.87785155219038)"><svg viewBox="0 0 395.52 109.30812330989724" height="109.30812330989724" width="395.52"><g id="textblocktransform"><svg viewBox="0 0 395.52 109.30812330989724" height="109.30812330989724" width="395.52" id="textblock"><g><svg viewBox="0 0 395.52 109.30812330989724" height="109.30812330989724" width="395.52"><g transform="matrix(1,0,0,1,0,0)"><svg width="395.52" viewBox="4.4 -25.2 92.44 25.55" height="109.30812330989724" data-palette-color="#dedad7"><path d="M17.7-3.15L17.9-2.8 17.65 0 4.4 0 4.55-7.5 4.4-24.9 8.15-24.9 8-7.8 8.1-3.15 17.7-3.15ZM31.4-25.2Q36.85-25.2 39.77-22 42.7-18.8 42.7-12.95L42.7-12.95Q42.7-6.6 39.57-3.13 36.45 0.35 30.65 0.35L30.65 0.35Q25.25 0.35 22.3-2.93 19.35-6.2 19.35-12.25L19.35-12.25Q19.35-18.45 22.5-21.83 25.65-25.2 31.4-25.2L31.4-25.2ZM31.05-22.05Q27.1-22.05 25.17-19.8 23.25-17.55 23.25-12.7L23.25-12.7Q23.25-7.5 25.15-5.15 27.05-2.8 30.95-2.8L30.95-2.8Q34.95-2.8 36.9-5.1 38.85-7.4 38.85-12.3L38.85-12.3Q38.85-17.35 36.92-19.7 35-22.05 31.05-22.05L31.05-22.05ZM60.25-25.15Q64.15-25.15 68.1-23.45L68.1-23.45 66.85-19.85 66.4-19.85Q64.55-21.05 63-21.53 61.45-22 59.65-22L59.65-22Q55.4-22 53.27-19.6 51.15-17.2 51.15-12.1L51.15-12.1Q51.15-7.2 53.1-5.03 55.05-2.85 59.3-2.85L59.3-2.85Q60.55-2.85 61.7-3.08 62.85-3.3 64.5-3.9L64.5-3.9 64.5-6.4 64.45-9.95 67.9-10.2 67.9-1.2Q62.85 0.3 59.15 0.3L59.15 0.3Q53.25 0.3 50.22-2.88 47.2-6.05 47.2-11.95L47.2-11.95Q47.2-18.35 50.62-21.75 54.05-25.15 60.25-25.15L60.25-25.15ZM85.54-25.2Q90.99-25.2 93.92-22 96.84-18.8 96.84-12.95L96.84-12.95Q96.84-6.6 93.72-3.13 90.59 0.35 84.79 0.35L84.79 0.35Q79.39 0.35 76.44-2.93 73.49-6.2 73.49-12.25L73.49-12.25Q73.49-18.45 76.64-21.83 79.79-25.2 85.54-25.2L85.54-25.2ZM85.19-22.05Q81.24-22.05 79.32-19.8 77.39-17.55 77.39-12.7L77.39-12.7Q77.39-7.5 79.29-5.15 81.19-2.8 85.09-2.8L85.09-2.8Q89.09-2.8 91.04-5.1 92.99-7.4 92.99-12.3L92.99-12.3Q92.99-17.35 91.07-19.7 89.14-22.05 85.19-22.05L85.19-22.05Z" opacity="1" transform="matrix(1,0,0,1,0,0)" fill="#dedad7" class="wordmark-text-0" data-fill-palette-color="primary" id="text-0"></path></svg></g></svg></g></svg></g></svg></g><g transform="matrix(1,0,0,1,421.3250245185073,0)"><svg viewBox="0 0 131.09267648154295 151.063826414278" height="151.063826414278" width="131.09267648154295"><g><svg xmlns="http://www.w3.org/2000/svg" xmlns:xlink="http://www.w3.org/1999/xlink" xml:space="preserve" version="1.1" style="shape-rendering:geometricPrecision;text-rendering:geometricPrecision;image-rendering:optimizeQuality;" viewBox="39 19 256 295" x="0" y="0" fill-rule="evenodd" clip-rule="evenodd" height="151.063826414278" width="131.09267648154295" class="icon-icon-0" data-fill-palette-color="accent" id="icon-0"><g fill="#b4bfc5" data-fill-palette-color="accent"><g fill="#b4bfc5" data-fill-palette-color="accent"><path class="" d="M130 152V188H75V220L121 246 167 273 213 246 259 220V195H295V240L231 277 167 314 103 277 39 240V152z" fill="#b4bfc5" data-fill-palette-color="accent"></path><polygon class="" points="167,19 231,56 295,93 295,152 295,167 295,188 203,188 203,152 259,152 259,114 213,87 167,61 121,87 75,114 75,144 39,144 39,93 103,56 " fill="#b4bfc5" data-fill-palette-color="accent"></polygon></g></g></svg></g></svg></g></svg></g><defs></defs></svg><rect width="395.52" height="108.15867144592059" fill="none" stroke="none" visibility="hidden"></rect></g></svg></g></svg>